<?xml version="1.0" encoding="UTF-8" standalone="no"?>
<!-- Created with Inkscape (http://www.inkscape.org/) -->

<svg
   xmlns:dc="http://purl.org/dc/elements/1.1/"
   xmlns:cc="http://creativecommons.org/ns#"
   xmlns:rdf="http://www.w3.org/1999/02/22-rdf-syntax-ns#"
   xmlns:svg="http://www.w3.org/2000/svg"
   xmlns="http://www.w3.org/2000/svg"
   xmlns:sodipodi="http://sodipodi.sourceforge.net/DTD/sodipodi-0.dtd"
   xmlns:inkscape="http://www.inkscape.org/namespaces/inkscape"
   width="35"
   height="35"
   viewBox="0 0 35 35.000001"
   id="svg4157"
   version="1.1"
   inkscape:version="0.91 r13725"
   sodipodi:docname="logo-vector.svg">
  <defs
     id="defs4159" />
  <sodipodi:namedview
     id="base"
     pagecolor="#ffffff"
     bordercolor="#666666"
     borderopacity="1.0"
     inkscape:pageopacity="0.0"
     inkscape:pageshadow="2"
     inkscape:zoom="11.2"
     inkscape:cx="20.406424"
     inkscape:cy="17.291019"
     inkscape:document-units="px"
     inkscape:current-layer="layer1"
     showgrid="false"
     units="px"
     inkscape:window-width="1366"
     inkscape:window-height="721"
     inkscape:window-x="-4"
     inkscape:window-y="-4"
     inkscape:window-maximized="1" />
  <metadata
     id="metadata4162">
    <rdf:RDF>
      <cc:Work
         rdf:about="">
        <dc:format>image/svg+xml</dc:format>
        <dc:type
           rdf:resource="http://purl.org/dc/dcmitype/StillImage" />
        <dc:title></dc:title>
      </cc:Work>
    </rdf:RDF>
  </metadata>
  <g
     inkscape:label="Layer 1"
     inkscape:groupmode="layer"
     id="layer1"
     transform="translate(0,-1017.3622)">
    <g
       id="g4818"
       transform="matrix(0.15052731,0,0,0.15052731,-20.601641,954.83758)">
      <path
         sodipodi:nodetypes="ssccccsscscccscccccccssssscs"
         inkscape:connector-curvature="0"
         id="path4713-4"
         d="m 216.39957,642.44991 c -7.37401,-12.28016 -11.61213,-23.1429 -13.84045,-35.47457 -1.18204,-6.54149 -1.18431,-20.20597 -0.005,-26.76904 2.9916,-16.64089 11.38998,-35.49713 24.76543,-55.60393 1.64801,-3.56084 3.06458,-10.48598 0.81078,-13.22071 -6.78073,-2.22015 -12.31681,-1.82238 -18.66488,1.1086 -8.62255,3.13621 -15.76354,5.02294 -20.53882,5.42659 -3.54047,0.29928 -3.66505,0.27007 -4.91609,-1.15289 -0.70597,-0.80298 -1.29076,-1.61867 -1.29954,-1.81264 -0.009,-0.19396 1.38043,-0.74448 3.08713,-1.22336 3.05527,-0.85726 4.96694,-2.18115 4.96694,-3.11994 -2.24093,-4.39422 -12.84394,-0.42615 -17.22575,-1.04727 -1.20388,-0.2266 -3.32864,-1.55765 -3.32864,-1.55765 -8.62133,-4.03462 -18.94504,-14.58148 -19.68697,-20.11297 0,0 -0.61485,-1.42146 -0.26773,-1.99605 11.04235,-4.68669 42.78581,-13.59503 45.91341,-21.1775 0.96621,-3.50077 0.0235,-7.37174 1.05684,-10.85979 8.64222,-8.70436 36.97552,-15.79069 42.0378,-22.13359 1.10245,-5.12374 -0.82255,-11.01235 0.59239,-15.7352 0.15716,-0.006 0.28071,0.86463 0.68646,0.75769 -0.035,-0.60858 -0.01,-1.47277 0.3464,-1.36608 0.60259,-0.25223 4.9761,4.74355 16.98274,21.08831 12.56786,17.10875 16.02563,22.1547 17.05833,24.89345 7.77318,20.61459 21.02979,63.69939 30.42849,98.89445 5.69727,21.33444 22.29355,86.37254 22.29355,87.36478 0,0.14627 -24.29735,0.26595 -53.99411,0.26595 l -53.99412,0 z"
         style="opacity:1;fill:#1b4380;fill-opacity:1;stroke:none;stroke-width:6.4000001;stroke-miterlimit:4;stroke-dasharray:none;stroke-opacity:1" />
      <path
         sodipodi:nodetypes="ssssscssscssssccssssscscs"
         inkscape:connector-curvature="0"
         id="path4764"
         d="m 269.56831,642.30135 c -1.43615,-3.63571 -4.61077,-13.65785 -4.27281,-20.48543 0.60304,-12.18275 3.53776,-19.26666 4.80106,-21.12046 1.2115,-1.7778 6.25565,-5.1699 9.83838,-14.25931 1.76283,-4.47231 -0.51222,-8.51751 -3.00505,-11.22192 -3.08183,-3.34338 -7.43628,-4.07009 -10.71511,-4.07591 -2.44499,-0.005 -2.10504,1.75429 -3.36862,2.71945 -1.15972,0.88583 -4.81775,0.67156 -7.08433,0.37938 -1.22595,-0.15804 -0.46026,-1.9785 -1.25513,-2.59995 -0.62698,-0.49019 -2.59961,-0.71432 -4.70426,-0.0252 l -3.1997,-5.37587 c -2.69378,-4.52588 -3.06781,-3.76841 2.83106,-9.35886 4.3532,-4.12559 4.85525,-5.23228 4.91641,-10.83724 0.0609,-5.58448 0.26516,-5.97679 4.49357,-8.63207 4.51035,-2.83234 10.99963,-7.67433 12.43766,-9.28039 3.11038,-3.23833 0.23826,-10.51066 1.40705,-13.59143 1.42542,-0.76794 6.81804,3.27839 6.81804,3.27839 6.86978,3.28777 6.96565,5.92793 14.62284,12.88444 3.61238,3.28181 9.76273,6.95236 12.06614,8.65359 3.71949,2.7471 4.63537,3.77447 8.18683,9.18345 15.26893,23.25506 26.24164,50.05338 35.94458,87.7864 l 2.95476,11.49048 -44.37272,0 c -33.80836,0 -37.16431,-0.002 -37.16431,-0.002 z"
         style="opacity:1;fill:#ec1d23;fill-opacity:1;stroke:none;stroke-width:6.4000001;stroke-miterlimit:4;stroke-dasharray:none;stroke-opacity:1" />
    </g>
  </g>
</svg>
